<svg width="627" height="525" viewBox="0 0 627 525" fill="none" xmlns="http://www.w3.org/2000/svg">
<path opacity="0.3" d="M177.457 110.543C124.93 129.525 78.7043 179.521 76.1493 248.412C74.7228 286.723 82.2312 385.009 191.517 410.538C366.936 451.531 524.705 437.67 557.826 339.001C587.327 251.128 540.584 134.244 452.976 110.126C391.233 93.1467 280.065 73.4512 177.457 110.543Z" fill="#E6E6E6"/>
<path d="M481.93 83.4388H170.395C164.873 83.4388 160.395 87.916 160.395 93.4388V377.658C160.395 383.181 164.872 387.658 170.395 387.658H481.93C487.453 387.658 491.93 383.181 491.93 377.658V93.4388C491.93 87.916 487.453 83.4388 481.93 83.4388Z" fill="#E6E6E6"/>
<path d="M184.824 118.711C188.884 118.711 192.175 115.054 192.175 110.543C192.175 106.033 188.884 102.376 184.824 102.376C180.764 102.376 177.472 106.033 177.472 110.543C177.472 115.054 180.764 118.711 184.824 118.711Z" fill="#FFD200"/>
<path d="M205.531 118.711C209.591 118.711 212.882 115.054 212.882 110.543C212.882 106.033 209.591 102.376 205.531 102.376C201.47 102.376 198.179 106.033 198.179 110.543C198.179 115.054 201.47 118.711 205.531 118.711Z" fill="#E6F4F1"/>
<path d="M225.375 118.711C229.435 118.711 232.727 115.054 232.727 110.543C232.727 106.033 229.435 102.376 225.375 102.376C221.315 102.376 218.023 106.033 218.023 110.543C218.023 115.054 221.315 118.711 225.375 118.711Z" fill="#24285B"/>
<path d="M371.858 101.105H257.948V119.982H371.858V101.105Z" fill="white"/>
<path opacity="0.09" d="M312.089 167.018C312.089 167.018 344.521 201.846 327.937 234.463C327.404 235.508 326.855 236.501 326.275 237.493C318.438 250.867 306.195 260.236 293.358 266.749C288.305 269.306 283.099 271.47 277.777 273.227C273.544 274.638 268.168 275.143 265.237 279.218C264.167 280.825 263.292 282.581 262.635 284.442C260.595 289.167 259.246 294.222 258.637 299.418C258.261 304.311 259.547 309.118 259.766 314.029C260.424 329.022 255.424 343.842 247.822 356.276C243.113 363.796 237.689 370.732 231.645 376.964C228.667 380.098 225.61 383.268 222.397 386.123C220.061 388.178 218.839 387.987 215.986 387.865C207.819 387.865 199.652 387.865 191.486 387.865L220.171 304.068L244.922 250.084C244.922 250.084 289.188 248.185 303.013 228.211C316.839 208.237 312.089 167.018 312.089 167.018Z" fill="black"/>
<path d="M504.953 142.511H377.605C372.082 142.511 367.605 146.988 367.605 152.511V347.384C367.605 352.907 372.082 357.384 377.605 357.384H504.953C510.476 357.384 514.953 352.907 514.953 347.384V152.511C514.953 146.988 510.476 142.511 504.953 142.511Z" fill="#0C6565"/>
<path d="M175.341 328.517C175.341 328.517 197.583 263.371 229.999 268.926C262.415 274.481 264.97 383.337 184.542 381.335L175.341 328.517Z" fill="#F4A28C"/>
<path opacity="0.1" d="M250.675 320.785C248.621 339.732 240.204 359.323 223.275 370.921C215.306 376.246 206.39 379.58 197.145 380.69C192.947 381.239 188.72 381.455 184.495 381.335L175.325 328.517C175.325 328.517 197.583 263.371 229.999 268.926C239.404 270.545 246.348 280.942 249.421 294.803C251.219 303.313 251.644 312.111 250.675 320.785V320.785Z" fill="black"/>
<path opacity="0.1" d="M250.675 320.785C242.618 331.234 228.275 337.294 225.814 353.437C224.936 359.201 224.058 365.279 223.275 370.851C215.306 376.176 206.39 379.51 197.144 380.621L201.847 346.663L247.665 292.957C248.267 293.534 248.838 294.15 249.374 294.803C251.188 303.31 251.629 312.107 250.675 320.785V320.785Z" fill="black"/>
<path d="M256.26 251.169L237.665 244.473L225.219 287.129L243.814 293.825L256.26 251.169Z" fill="#E6F4F1"/>
<path d="M280.175 135.376C269.222 131.432 257.461 131.185 246.382 134.667C235.302 138.148 225.4 145.201 217.929 154.934C210.457 164.667 205.752 176.643 204.407 189.348C203.062 202.052 205.138 214.914 210.374 226.308C215.609 237.701 223.767 247.114 233.818 253.356C243.868 259.598 255.359 262.388 266.837 261.375C278.316 260.361 289.265 255.589 298.302 247.662C307.339 239.735 314.057 229.009 317.607 216.84C322.367 200.523 321.097 182.773 314.077 167.496C307.057 152.219 294.862 140.665 280.175 135.376ZM248.715 243.17C240.475 240.208 233.21 234.599 227.84 227.05C222.469 219.502 219.233 210.354 218.541 200.763C217.85 191.172 219.733 181.569 223.954 173.167C228.174 164.765 234.542 157.942 242.253 153.56C249.964 149.179 258.671 147.435 267.273 148.55C275.875 149.665 283.987 153.589 290.583 159.825C297.178 166.061 301.961 174.33 304.327 183.585C306.693 192.841 306.536 202.668 303.876 211.825C300.296 224.101 292.474 234.294 282.129 240.163C271.785 246.031 259.765 247.094 248.715 243.118V243.17Z" fill="#0C6565"/>
<path d="M246.517 281.238L229.638 275.159C225.751 273.759 221.579 276.125 220.319 280.444L203.687 337.446C202.427 341.764 204.556 346.4 208.443 347.799L225.323 353.878C229.21 355.278 233.382 352.912 234.642 348.594L251.274 291.591C252.534 287.273 250.404 282.637 246.517 281.238Z" fill="#0C6565"/>
<path d="M204.214 307.864C204.214 307.864 233.197 283.71 243.652 288.081C252.273 291.704 249.546 311.434 227.836 324.512C223.43 327.133 219.583 330.775 216.554 335.192C213.525 339.608 211.385 344.696 210.28 350.111C208.462 359.201 204.214 369.65 194.605 376.459C174.557 390.791 163.569 373.429 168.538 350.337C173.507 327.246 175.67 320.437 204.214 307.864Z" fill="#F4A28C"/>
<path d="M191.141 441.292L204.935 374.386L159.383 350.111L120.4 441.292H191.141Z" fill="#E6F4F1"/>
<path opacity="0.1" d="M191.141 441.292L204.935 374.386L183.194 362.788L162.895 441.292H191.141Z" fill="black"/>
<path opacity="0.43" d="M447.788 190.475H417.284V200.192H447.788V190.475Z" fill="#C1C1C1"/>
<path opacity="0.36" d="M396.954 210.344C403.377 210.344 408.585 204.559 408.585 197.423C408.585 190.287 403.377 184.502 396.954 184.502C390.53 184.502 385.323 190.287 385.323 197.423C385.323 204.559 390.53 210.344 396.954 210.344Z" fill="#C1C1C1"/>
<path d="M457.381 309.222H393.725V329.876H457.381V309.222Z" fill="#E6F4F1"/>
<path d="M456.362 225.948H393.725V234.533H456.362V225.948Z" fill="#C1C1C1"/>
<path opacity="0.44" d="M491.615 248.412H393.725V256.997H491.615V248.412Z" fill="#C1C1C1"/>
<path opacity="0.44" d="M491.615 267.219H393.725V275.804H491.615V267.219Z" fill="#C1C1C1"/>
<path opacity="0.44" d="M470.564 286.758H393.725V295.343H470.564V286.758Z" fill="#C1C1C1"/>
<path d="M381.639 165.555C384.557 165.555 386.922 162.928 386.922 159.686C386.922 156.445 384.557 153.818 381.639 153.818C378.722 153.818 376.357 156.445 376.357 159.686C376.357 162.928 378.722 165.555 381.639 165.555Z" fill="#FFD200"/>
<path d="M396.531 165.555C399.448 165.555 401.813 162.928 401.813 159.686C401.813 156.445 399.448 153.818 396.531 153.818C393.613 153.818 391.248 156.445 391.248 159.686C391.248 162.928 393.613 165.555 396.531 165.555Z" fill="#E6F4F1"/>
<path d="M410.795 165.555C413.712 165.555 416.077 162.928 416.077 159.686C416.077 156.445 413.712 153.818 410.795 153.818C407.877 153.818 405.512 156.445 405.512 159.686C405.512 162.928 407.877 165.555 410.795 165.555Z" fill="white"/>
<path d="M262.697 237.667C255.424 237.681 248.31 235.297 242.257 230.818C236.204 226.338 231.483 219.964 228.691 212.503C225.9 205.041 225.164 196.827 226.577 188.901C227.989 180.974 231.487 173.691 236.626 167.974C241.766 162.257 248.317 158.362 255.45 156.782C262.583 155.203 269.978 156.01 276.698 159.102C283.418 162.193 289.161 167.43 293.201 174.149C297.241 180.868 299.396 188.768 299.393 196.848C299.38 207.661 295.512 218.028 288.634 225.678C281.756 233.329 272.43 237.64 262.697 237.667V237.667ZM262.697 167.018C257.387 167.018 252.195 168.767 247.78 172.045C243.364 175.323 239.922 179.982 237.89 185.433C235.858 190.884 235.326 196.882 236.362 202.668C237.398 208.455 239.955 213.77 243.711 217.942C247.466 222.114 252.25 224.955 257.459 226.106C262.668 227.257 268.066 226.666 272.973 224.408C277.879 222.15 282.073 218.327 285.023 213.421C287.974 208.516 289.549 202.748 289.549 196.848C289.544 188.938 286.714 181.353 281.679 175.76C276.645 170.167 269.817 167.023 262.697 167.018V167.018Z" fill="#C9C9C9"/>
<path d="M262.697 237.667C253.714 237.672 245.042 234.017 238.323 227.393L244.891 219.173C249.797 224.015 256.134 226.686 262.697 226.679V237.667Z" fill="#24285B"/>
<path d="M299.393 196.848H289.502C289.493 188.94 286.662 181.358 281.628 175.765C276.594 170.173 269.769 167.027 262.65 167.018V156.012C272.394 156.026 281.735 160.333 288.623 167.989C295.511 175.645 299.384 186.024 299.393 196.848V196.848Z" fill="#E6F4F1"/>
<path d="M262.697 237.667V226.679C269.815 226.665 276.637 223.518 281.67 217.927C286.703 212.335 289.536 204.756 289.549 196.848H299.392C299.38 207.661 295.511 218.027 288.634 225.678C281.756 233.329 272.43 237.64 262.697 237.667Z" fill="#FFEE51"/>
<path opacity="0.08" d="M287.934 325.383H272.792V352.671H287.934V325.383Z" fill="black"/>
<path opacity="0.08" d="M313.469 296.075H298.327V352.688H313.469V296.075Z" fill="black"/>
<path opacity="0.08" d="M340.398 276.362H325.256V352.688H340.398V276.362Z" fill="black"/>
<g opacity="0.08">
<path opacity="0.08" d="M263.748 103.769L265.315 110.491C265.66 111.972 265.989 113.347 266.209 114.706C266.491 113.365 266.883 111.954 267.274 110.526L269.218 103.769H271.178L273.027 110.387C273.466 111.972 273.811 113.365 274.077 114.706C274.305 113.259 274.608 111.829 274.987 110.422L276.679 103.769H278.827L274.987 117.004H273.011L271.178 110.683C270.77 109.22 270.425 107.897 270.127 106.347C269.836 107.824 269.475 109.283 269.046 110.718L267.118 117.004H265.158L261.569 103.769H263.748Z" fill="black"/>
<path opacity="0.08" d="M282.15 103.769L283.717 110.491C284.062 111.972 284.376 113.347 284.595 114.706H284.674C284.94 113.365 285.332 111.954 285.724 110.526L287.668 103.769H289.486L291.336 110.387C291.774 111.972 292.119 113.365 292.401 114.706C292.636 113.261 292.94 111.831 293.311 110.422L295.019 103.769H297.151L293.311 117.004H291.351L289.533 110.683C289.11 109.259 288.754 107.812 288.467 106.347V106.347C288.183 107.826 287.822 109.285 287.385 110.718L285.473 117.004H283.498L279.908 103.769H282.15Z" fill="black"/>
<path opacity="0.08" d="M300.568 103.769L302.136 110.491C302.48 111.972 302.81 113.347 303.029 114.706C303.311 113.365 303.703 111.954 304.095 110.526L306.039 103.769H307.857L309.707 110.387C310.146 111.972 310.49 113.365 310.757 114.706H310.835C311.062 113.259 311.366 111.829 311.744 110.422L313.5 103.769H315.647L311.807 117.004H309.832L308.014 110.683C307.606 109.22 307.261 107.897 306.963 106.347C306.672 107.824 306.311 109.283 305.882 110.718L303.954 117.004H301.995L298.389 103.769H300.568Z" fill="black"/>
<path opacity="0.08" d="M316.337 115.576C316.316 115.348 316.338 115.118 316.402 114.9C316.466 114.682 316.57 114.482 316.709 114.311C316.847 114.141 317.015 114.005 317.204 113.912C317.392 113.819 317.596 113.771 317.803 113.771C318.009 113.771 318.213 113.819 318.402 113.912C318.59 114.005 318.759 114.141 318.897 114.311C319.035 114.482 319.14 114.682 319.204 114.9C319.268 115.118 319.29 115.348 319.268 115.576C319.29 115.804 319.268 116.035 319.204 116.252C319.14 116.47 319.035 116.671 318.897 116.841C318.759 117.011 318.59 117.147 318.402 117.24C318.213 117.334 318.009 117.382 317.803 117.382C317.596 117.382 317.392 117.334 317.204 117.24C317.015 117.147 316.847 117.011 316.709 116.841C316.57 116.671 316.466 116.47 316.402 116.252C316.338 116.035 316.316 115.804 316.337 115.576V115.576Z" fill="black"/>
</g>
<path d="M263.209 14.0295H138.163C132.64 14.0295 128.163 18.5067 128.163 24.0295V181.983C128.163 187.506 132.64 191.983 138.163 191.983H263.209C268.732 191.983 273.209 187.506 273.209 181.983V24.0295C273.209 18.5067 268.732 14.0295 263.209 14.0295Z" fill="#E6E6E6"/>
<path d="M241.807 92.3309C241.869 92.8858 241.892 93.4454 241.862 94.0029C241.032 109.598 236.956 122.46 228.328 134.226C227.16 135.823 226.058 136.257 224.791 135.62C224.131 135.199 223.685 134.585 223.54 133.901C223.395 133.217 223.562 132.512 224.008 131.927C225.275 130.024 226.708 128.233 227.843 126.229C235.623 112.739 238.697 98.5925 236.019 83.6892C235.22 79.2832 233.614 75.0069 231.259 71.0112C230.86 70.3876 230.617 69.7029 230.543 68.9982C230.44 68.4828 230.57 67.9537 230.909 67.5147C231.247 67.0756 231.769 66.7584 232.372 66.6251C233.76 66.3204 234.576 67.0684 235.083 68.0194C237.732 72.3717 239.551 77.0455 240.471 81.8701C241.171 85.8353 241.527 89.8004 241.807 92.3309Z" fill="#B3B3B3"/>
<path d="M202.918 39.9546C203.044 40.4559 203.097 40.9963 202.955 41.4935C202.943 41.5369 202.929 41.58 202.913 41.6227C202.808 41.9134 202.63 42.1821 202.392 42.4113C202.153 42.6405 201.86 42.825 201.531 42.9528C201.202 43.0806 200.845 43.1488 200.482 43.1529C185.165 43.5869 174.102 50.0783 165.683 60.3001C162.166 64.6627 159.517 69.4744 157.838 74.5478C157.221 76.3022 156.24 77.0317 154.895 76.7732C154.53 76.6633 154.194 76.4932 153.908 76.273C153.623 76.0527 153.392 75.7867 153.231 75.4907C153.07 75.1946 152.981 74.8745 152.97 74.5493C152.958 74.224 153.025 73.9001 153.165 73.5967C158.774 57.8993 169.044 45.4891 188.427 39.9303C192.13 38.8684 196.218 38.7207 200.152 38.3144C201.647 38.1234 202.63 38.8114 202.918 39.9546Z" fill="#B3B3B3"/>
<path d="M251.006 87.6691C251.006 88.7033 251.006 89.6451 251.006 90.5777C251.006 92.1752 249.981 93.274 248.603 93.2832C247.226 93.2924 246.256 92.1936 246.245 90.5685C246.233 85.3111 245.366 80.0797 243.667 75.0188C239.843 63.9382 233 54.7044 221.287 48.3239C220.394 47.8437 219.435 47.4467 218.543 46.9757C217.889 46.6644 217.389 46.168 217.133 45.5758C216.876 44.9835 216.88 44.3341 217.143 43.7439C217.749 42.2388 219.05 41.7956 220.769 42.5712C225.958 44.9401 230.601 48.0672 234.477 51.805C243.193 60.1616 248.03 69.9956 250.08 80.8638C250.499 83.1537 250.708 85.4622 251.006 87.6691Z" fill="#B3B3B3"/>
<path d="M215.997 104.53C215.997 105.241 215.997 105.952 215.997 106.663C215.997 108.196 215.05 109.258 213.727 109.313C212.405 109.368 211.336 108.279 211.237 106.681C211.116 104.595 211.072 102.499 210.862 100.421C210.621 96.1919 209.53 92.0274 207.634 88.103C206.985 86.8381 206.12 85.6592 205.066 84.6034C204.556 84.0545 203.912 83.6034 203.177 83.2804C202.442 82.9573 201.633 82.7698 200.804 82.7305C199.975 82.6911 199.146 82.8008 198.372 83.0522C197.598 83.3035 196.897 83.6908 196.317 84.1879C195.288 84.9656 194.463 85.9137 193.894 86.9722C193.325 88.0308 193.025 89.1767 193.011 90.3376C193.027 90.5716 193.035 90.8058 193.036 91.04C193.037 91.5501 192.985 92.0687 192.773 92.533C192.436 93.2735 191.818 93.8209 190.697 93.828C190.386 93.8346 190.076 93.7874 189.788 93.6895C189.499 93.5916 189.238 93.4449 189.02 93.2588C188.802 93.0726 188.632 92.8508 188.52 92.6071C188.409 92.3635 188.358 92.1033 188.372 91.8427C188.256 90.5121 188.345 89.1745 188.636 87.8629C189.738 83.246 192.405 79.5525 198.19 78.1028C199.755 77.7034 201.42 77.6641 203.01 77.989C204.6 78.3139 206.056 78.9911 207.226 79.9496C210.311 82.2488 211.942 85.2959 213.121 88.5185C214.944 93.7213 215.911 99.1081 215.997 104.53Z" fill="#B3B3B3"/>
<path d="M231.898 103.45C229.694 118.067 223.215 131.76 209.242 142.444C207.523 143.755 206.466 143.884 205.419 142.961C204.838 142.375 204.553 141.623 204.625 140.864C204.697 140.105 205.12 139.399 205.804 138.898C207.843 137.208 209.97 135.583 211.821 133.755C220.251 125.444 224.802 115.61 226.796 104.899C226.961 103.976 227.05 103.136 227.193 102.258C227.457 100.652 228.416 99.7099 229.705 99.7653C230.994 99.8207 232.03 100.984 231.898 103.45Z" fill="#B3B3B3"/>
<path d="M159.876 90.9008C160.273 78.5737 164.284 67.6224 174.201 58.5271C175.855 57.0848 177.622 55.7368 179.49 54.492C181.022 53.4116 182.014 53.4116 182.973 54.2703C183.478 54.7625 183.77 55.3839 183.8 56.0329C183.83 56.6819 183.597 57.3203 183.138 57.8438C182.931 58.0462 182.698 58.2289 182.444 58.3886C172.273 64.9538 167.094 73.8829 165.364 84.2986C164.954 87.8333 164.825 91.387 164.978 94.936C164.978 96.8566 164.273 98.0478 162.774 98.1401C161.276 98.2324 160.328 97.1521 160.196 95.1853C160.052 93.6802 159.964 92.1658 159.876 90.9008Z" fill="#B3B3B3"/>
<path d="M201.885 53.2138C201.215 53.1515 200.541 53.1341 199.87 53.1839C198.654 53.274 197.566 53.3487 196.471 53.4579C194.168 53.698 193.033 53.1348 192.736 51.5281C192.438 49.9214 193.518 48.8226 195.667 48.5456C201.232 47.8356 206.921 48.3282 212.196 49.9768C217.125 51.4911 221.6 53.8893 225.309 57.0037C225.792 57.418 226.137 57.925 226.319 58.4745C226.497 59.0137 226.462 59.6128 226.217 60.1251C225.967 60.6467 225.558 61.1096 225.022 61.4636C224.119 62.0454 223.149 61.4636 222.367 60.8542C217.961 57.2062 212.375 54.7213 206.3 53.7073C204.807 53.4333 203.279 53.3434 201.885 53.2138Z" fill="#B3B3B3"/>
<path d="M176.339 111.714C176.371 118.001 175.35 124.261 173.309 130.311C172.703 132.047 171.689 132.795 170.333 132.462C168.978 132.13 168.13 130.689 168.692 129.138C170.681 123.584 171.636 117.807 171.524 112.009C171.424 108.648 170.829 105.287 170.422 101.926C170.309 101.315 170.272 100.696 170.311 100.079C170.466 99.0266 171.072 98.1771 172.515 98.1217C173.082 98.1008 173.637 98.2638 174.063 98.5768C174.49 98.8898 174.757 99.3288 174.807 99.8022C175.292 102.083 175.711 104.373 175.997 106.672C176.24 108.556 176.24 110.476 176.339 111.714Z" fill="#B3B3B3"/>
<path d="M205.76 115.694C205.076 124.433 203.129 133.072 199.964 141.419C199.369 142.998 198.422 143.589 197.066 143.312C195.711 143.035 194.862 141.557 195.347 140.126C196.085 137.855 196.945 135.611 197.628 133.33C199.437 127.341 200.57 121.223 201.011 115.057C201.011 114.973 201.011 114.881 201.011 114.789C201.165 113.191 202.179 112.12 203.501 112.148C204.824 112.176 205.837 113.348 205.793 115.029C205.793 115.25 205.771 115.472 205.76 115.694Z" fill="#B3B3B3"/>
<path d="M224.332 99.6822C224.311 99.6822 224.295 99.6986 224.295 99.7189C224.295 101.083 224.295 102.464 224.295 103.819C224.295 105.185 223.281 106.109 222.014 106.137C221.668 106.116 221.33 106.037 221.02 105.907C220.71 105.776 220.434 105.595 220.207 105.374C219.981 105.154 219.809 104.898 219.701 104.622C219.593 104.345 219.552 104.053 219.579 103.763C219.579 102.341 219.81 100.901 219.579 99.5067C218.974 95.3827 218.211 91.2753 217.496 87.1609C217.415 86.6943 217.257 86.2371 217.22 85.765V85.765C217.161 85.0316 217.577 84.3493 218.148 83.8847C218.335 83.732 218.534 83.5948 218.733 83.4884C219.208 83.2351 219.782 83.2793 220.273 83.5009C220.444 83.5783 220.606 83.6704 220.756 83.7761C220.902 83.8788 221.034 83.9931 221.152 84.117C221.493 84.4744 221.647 84.9601 221.787 85.4331C222.586 88.12 223.261 90.8369 223.777 93.5694C224.16 95.5692 224.184 97.6145 224.368 99.642C224.37 99.6636 224.353 99.6822 224.332 99.6822V99.6822Z" fill="#B3B3B3"/>
<path d="M195.865 114.927C195.678 117.245 195.446 120.08 195.193 122.924C195.156 123.278 195.075 123.627 194.951 123.967C194.852 124.41 194.564 124.808 194.139 125.085C193.715 125.362 193.185 125.5 192.648 125.472C192.104 125.455 191.588 125.27 191.197 124.953C190.806 124.636 190.57 124.209 190.532 123.755C190.405 123.094 190.405 122.421 190.532 121.76C191.239 116.319 191.18 110.827 190.356 105.398C190.28 104.917 190.309 104.429 190.444 103.957C190.521 103.515 190.787 103.112 191.192 102.821C191.597 102.531 192.114 102.374 192.648 102.378C193.196 102.376 193.725 102.545 194.133 102.852C194.54 103.16 194.797 103.583 194.851 104.04C195.158 105.483 195.371 106.937 195.491 108.399C195.656 110.403 195.722 112.406 195.865 114.927Z" fill="#B3B3B3"/>
<path d="M167.186 111.274C167.235 111.26 167.283 111.301 167.275 111.352C166.708 114.916 166.184 118.481 165.584 122.046C165.558 122.535 165.371 123.008 165.044 123.413C164.804 123.67 164.513 123.887 164.188 124.057C163.539 124.395 162.747 124.452 162.092 124.127V124.127C162.038 124.1 161.986 124.072 161.935 124.043C161.442 123.754 161.112 123.244 160.974 122.689C160.853 122.2 160.849 121.692 160.967 121.197C162.131 116.446 162.502 111.582 162.069 106.746C162.014 106.304 162.014 105.858 162.069 105.416C162.256 104.364 162.884 103.57 164.273 103.486C164.571 103.474 164.87 103.512 165.15 103.6C165.43 103.687 165.686 103.821 165.903 103.994C166.119 104.166 166.292 104.374 166.409 104.604C166.527 104.835 166.587 105.083 166.587 105.333C166.847 107.281 166.937 109.256 167.098 111.213C167.101 111.257 167.144 111.287 167.186 111.274V111.274Z" fill="#B3B3B3"/>
<path d="M205.588 104.388C205.499 104.4 205.436 104.48 205.442 104.569C205.485 105.181 205.481 105.794 205.43 106.404C205.253 107.392 204.691 108.251 203.369 108.316C203.076 108.357 202.775 108.345 202.487 108.281C202.2 108.217 201.931 108.103 201.7 107.946C201.469 107.789 201.28 107.592 201.146 107.37C201.012 107.147 200.936 106.903 200.923 106.654C200.647 104.946 200.647 103.2 200.394 101.483C199.975 98.7014 199.462 95.9357 198.977 93.1639C198.9 92.7273 198.774 92.2948 198.752 91.852V91.852C198.637 91.2518 198.79 90.637 199.182 90.1257C199.575 89.6144 200.179 89.2427 200.879 89.0819C202.069 88.9526 203.215 89.7652 203.479 91.178C204.284 95.5069 204.992 99.8539 205.731 104.192C205.747 104.286 205.682 104.375 205.588 104.388V104.388Z" fill="#B3B3B3"/>
<path d="M215.347 115.74C214.674 120.718 213.264 125.606 211.149 130.292C210.948 130.628 210.65 130.917 210.283 131.133V131.133C209.534 131.573 208.56 131.511 207.849 131.013C207.838 131.005 207.827 130.997 207.816 130.989C207.726 130.924 207.64 130.855 207.56 130.781C207.103 130.366 206.864 129.756 206.851 129.139C206.841 128.667 206.93 128.194 207.116 127.744C208.201 123.66 209.383 119.559 210.524 115.51C210.558 115.387 210.567 115.265 210.584 115.138V115.138C210.603 115.001 210.668 114.868 210.709 114.736C211.096 113.473 212.079 112.735 213.232 112.84C214.444 112.951 215.38 114.059 215.347 115.74Z" fill="#B3B3B3"/>
<path d="M185.92 124.331C186.051 124.375 186.123 124.517 186.08 124.648C184.729 128.798 183.408 132.947 181.992 137.079C181.95 137.292 181.856 137.496 181.714 137.676C181.572 137.856 181.386 138.009 181.169 138.125C180.951 138.241 180.707 138.317 180.452 138.349V138.349C179.944 138.411 179.438 138.231 179.008 137.954C178.785 137.81 178.582 137.647 178.402 137.467C177.904 136.972 177.636 136.27 177.69 135.57C177.717 135.227 177.799 134.886 177.937 134.558C178.918 131.022 179.953 127.494 180.967 123.967C181.055 123.662 180.967 123.256 181.243 123.044C181.915 122.508 182.697 121.668 183.446 121.677C184.196 121.686 184.956 122.536 185.573 123.127C185.795 123.336 185.738 123.757 185.757 124.125C185.762 124.221 185.829 124.3 185.92 124.331V124.331Z" fill="#B3B3B3"/>
<path d="M193.263 129.648C193.72 130.571 193.46 131.654 193.171 132.642C192.898 133.577 192.586 134.616 192.229 135.648C191.765 136.99 191.316 138.193 190.795 139.425C190.573 139.949 190.432 140.531 190.047 140.951C189.907 141.105 189.737 141.24 189.543 141.351C189.075 141.62 188.502 141.727 187.942 141.65C187.36 141.556 186.839 141.288 186.475 140.895C186.309 140.716 186.182 140.516 186.095 140.304C185.894 139.808 185.915 139.244 185.999 138.715C186.027 138.54 186.069 138.367 186.124 138.196C187.043 135.506 187.979 132.819 188.934 130.135C189.309 129.092 189.97 128.289 191.491 128.362C192.237 128.422 192.887 128.889 193.263 129.648Z" fill="#B3B3B3"/>
<path d="M261.397 149.96C261.397 154.229 257.937 157.689 253.668 157.689H244.243C243.529 157.689 242.951 157.11 242.951 156.396V156.396C242.951 155.682 243.529 155.103 244.243 155.103H251.864C255.419 155.103 258.3 152.222 258.3 148.668V143.78C258.3 142.925 258.994 142.232 259.849 142.232V142.232C260.704 142.232 261.397 142.925 261.397 143.78V149.96Z" fill="#21AF8D"/>
<path d="M140.714 149.96C140.714 154.229 144.174 157.689 148.442 157.689H157.867C158.581 157.689 159.16 157.11 159.16 156.396V156.396C159.16 155.682 158.581 155.103 157.867 155.103H150.235C146.681 155.103 143.799 152.222 143.799 148.668V143.774C143.799 142.922 143.108 142.232 142.256 142.232V142.232C141.404 142.232 140.714 142.922 140.714 143.774V149.96Z" fill="#21AF8D"/>
<path d="M261.397 29.4867C261.397 25.2183 257.937 21.7581 253.668 21.7581H244.243C243.529 21.7581 242.951 22.3368 242.951 23.0508V23.0508C242.951 23.7647 243.529 24.3435 244.243 24.3435H251.864C255.419 24.3435 258.3 27.225 258.3 30.7795V35.6672C258.3 36.5223 258.994 37.2154 259.849 37.2154V37.2154C260.704 37.2154 261.397 36.5223 261.397 35.6672V29.4867Z" fill="#21AF8D"/>
<path d="M140.714 29.4867C140.714 25.2183 144.174 21.7581 148.442 21.7581H157.867C158.581 21.7581 159.16 22.3368 159.16 23.0508V23.0508C159.16 23.7647 158.581 24.3435 157.867 24.3435H150.235C146.681 24.3435 143.799 27.225 143.799 30.7795V35.6727C143.799 36.5247 143.108 37.2154 142.256 37.2154V37.2154C141.404 37.2154 140.714 36.5247 140.714 35.6727V29.4867Z" fill="#21AF8D"/>
<path opacity="0.46" d="M259.384 167.467H142.727C141.615 167.467 140.714 168.369 140.714 169.48C140.714 170.592 141.615 171.493 142.727 171.493H259.384C260.495 171.493 261.397 170.592 261.397 169.48C261.397 168.369 260.495 167.467 259.384 167.467Z" fill="white"/>
<path opacity="0.46" d="M244.882 177.745H142.727C141.615 177.745 140.714 178.646 140.714 179.758C140.714 180.869 141.615 181.771 142.727 181.771H244.882C245.994 181.771 246.895 180.869 246.895 179.758C246.895 178.646 245.994 177.745 244.882 177.745Z" fill="white"/>
<path d="M233.286 138.843C242.707 138.843 250.344 132.443 250.344 124.549C250.344 116.654 242.707 110.255 233.286 110.255C223.866 110.255 216.229 116.654 216.229 124.549C216.229 132.443 223.866 138.843 233.286 138.843Z" fill="#0C6565"/>
<path d="M234.474 129.768C231.759 131.707 227.972 130.967 226.187 128.148L224.113 124.872C223.309 123.602 223.82 121.914 225.194 121.304V121.304C226.31 120.807 227.622 121.205 228.275 122.238L228.882 123.196C230.041 125.029 232.502 125.511 234.267 124.251L240.76 119.615C241.67 118.965 242.915 119.063 243.713 119.846V119.846C244.735 120.85 244.604 122.533 243.438 123.365L234.474 129.768Z" fill="#E6F4F1"/>
<path d="M443.433 127.147C440.846 128.29 437.966 128.847 435.061 128.766C427.363 128.766 420.76 123.887 420.76 116.089C420.76 107.711 427.495 100.472 437.927 100.472C446.114 100.472 451.621 105.431 451.621 112.225C451.621 118.324 447.659 121.903 443.248 121.903C441.36 121.903 439.617 120.763 439.762 118.324H439.564C438.96 119.393 438.022 120.295 436.855 120.927C435.688 121.56 434.339 121.898 432.962 121.903C430.228 121.903 427.864 119.988 427.864 116.773C427.861 115.507 428.148 114.252 428.708 113.081C429.268 111.91 430.091 110.846 431.129 109.951C432.168 109.056 433.401 108.347 434.758 107.864C436.115 107.382 437.569 107.136 439.036 107.141C440.764 107.117 442.478 107.409 444.067 107.996L442.496 115.405C441.796 118.495 442.351 119.965 443.909 119.965C446.312 119.965 448.993 117.241 448.993 112.521C448.993 106.628 444.899 102.398 437.597 102.398C429.924 102.398 423.467 107.642 423.467 115.896C423.467 122.735 428.604 126.874 435.576 126.874C438.046 126.922 440.489 126.432 442.681 125.449L443.433 127.147ZM440.792 109.58C440.03 109.384 439.237 109.288 438.442 109.295C434.295 109.295 430.954 112.715 430.954 116.614C430.954 118.403 431.984 119.703 434.058 119.703C436.791 119.703 439.34 116.694 439.802 114.174L440.792 109.58Z" fill="#21AF8D"/>
</svg>
