<svg width="1187" height="1259" viewBox="0 0 1187 1259" fill="none" xmlns="http://www.w3.org/2000/svg">
<ellipse cx="946.5" cy="-5.5" rx="185.5" ry="172.5" fill="#3FD5B1" fill-opacity="0.46"/>
<ellipse cx="177.136" cy="-35.9753" rx="134.619" ry="139.837" transform="rotate(-21.7574 177.136 -35.9753)" fill="#3FD5B1" fill-opacity="0.46"/>
<ellipse cx="1123.5" cy="117" rx="189.5" ry="203" fill="#7AFFDF" fill-opacity="0.28"/>
<ellipse cx="225" cy="1251.5" rx="139" ry="142.5" fill="#3FD5B1" fill-opacity="0.46"/>
<path opacity="0.3" d="M425.496 418.708C351.942 445.102 287.211 514.62 283.633 610.411C281.636 663.682 292.15 800.346 445.185 835.844C690.828 892.844 911.754 873.569 958.135 736.372C999.445 614.188 933.99 451.664 811.311 418.127C724.85 394.518 569.181 367.132 425.496 418.708Z" fill="#E6E6E6"/>
<path d="M855.859 381.02H411.605C406.082 381.02 401.605 385.497 401.605 391.02V794.03C401.605 799.552 406.082 804.03 411.605 804.03H855.859C861.382 804.03 865.859 799.552 865.859 794.03V391.02C865.859 385.497 861.382 381.02 855.859 381.02Z" fill="#E6E6E6"/>
<path d="M435.812 430.065C441.498 430.065 446.107 424.98 446.107 418.708C446.107 412.436 441.498 407.352 435.812 407.352C430.127 407.352 425.518 412.436 425.518 418.708C425.518 424.98 430.127 430.065 435.812 430.065Z" fill="#FFD200"/>
<path d="M464.808 430.065C470.494 430.065 475.103 424.98 475.103 418.708C475.103 412.436 470.494 407.352 464.808 407.352C459.123 407.352 454.514 412.436 454.514 418.708C454.514 424.98 459.123 430.065 464.808 430.065Z" fill="#E6F4F1"/>
<path d="M492.597 430.065C498.283 430.065 502.892 424.98 502.892 418.708C502.892 412.436 498.283 407.352 492.597 407.352C486.912 407.352 482.302 412.436 482.302 418.708C482.302 424.98 486.912 430.065 492.597 430.065Z" fill="#24285B"/>
<path d="M697.72 405.584H538.209V431.832H697.72V405.584Z" fill="white"/>
<path opacity="0.09" d="M614.025 497.234C614.025 497.234 659.439 545.662 636.216 591.015C635.47 592.468 634.701 593.848 633.889 595.229C622.914 613.825 605.771 626.852 587.794 635.908C580.719 639.463 573.429 642.473 565.976 644.916C560.049 646.877 552.521 647.579 548.416 653.246C546.918 655.481 545.693 657.923 544.772 660.51C541.917 667.079 540.027 674.109 539.175 681.334C538.648 688.138 540.448 694.821 540.755 701.649C541.677 722.498 534.675 743.104 524.03 760.393C517.435 770.849 509.841 780.494 501.377 789.159C497.207 793.517 492.926 797.924 488.427 801.896C485.156 804.753 483.444 804.486 479.449 804.317C468.013 804.317 456.577 804.317 445.141 804.317L485.31 687.799L519.969 612.735C519.969 612.735 581.956 610.096 601.315 582.323C620.675 554.549 614.025 497.234 614.025 497.234Z" fill="black"/>
<path d="M888.099 463.158H701.764C696.241 463.158 691.764 467.635 691.764 473.158V751.934C691.764 757.457 696.241 761.934 701.764 761.934H888.099C893.622 761.934 898.099 757.457 898.099 751.934V473.158C898.099 467.635 893.622 463.158 888.099 463.158Z" fill="#0C6565"/>
<path d="M422.533 721.796C422.533 721.796 453.68 631.211 499.072 638.935C544.465 646.659 548.043 798.021 435.417 795.237L422.533 721.796Z" fill="#F4A28C"/>
<path opacity="0.1" d="M528.024 711.044C525.149 737.389 513.362 764.63 489.656 780.757C478.498 788.161 466.011 792.797 453.065 794.341C447.188 795.104 441.268 795.404 435.352 795.237L422.511 721.795C422.511 721.795 453.68 631.211 499.072 638.935C512.242 641.187 521.966 655.643 526.268 674.917C528.787 686.75 529.382 698.982 528.024 711.044V711.044Z" fill="black"/>
<path opacity="0.1" d="M528.024 711.044C516.742 725.573 496.658 733.999 493.212 756.446C491.982 764.461 490.753 772.911 489.656 780.66C478.497 788.064 466.011 792.7 453.065 794.244L459.65 747.026L523.81 672.35C524.653 673.152 525.452 674.009 526.203 674.917C528.743 686.746 529.36 698.978 528.024 711.044V711.044Z" fill="black"/>
<path d="M535.845 614.245L509.807 604.934L492.379 664.247L518.417 673.557L535.845 614.245Z" fill="#E6F4F1"/>
<path d="M569.334 453.237C553.996 447.753 537.528 447.41 522.013 452.25C506.498 457.091 492.632 466.898 482.17 480.432C471.707 493.966 465.118 510.618 463.235 528.284C461.351 545.949 464.259 563.833 471.59 579.675C478.921 595.517 490.346 608.606 504.42 617.285C518.493 625.964 534.584 629.845 550.657 628.435C566.73 627.026 582.064 620.391 594.718 609.368C607.373 598.346 616.78 583.431 621.751 566.511C628.416 543.822 626.638 519.142 616.808 497.899C606.978 476.656 589.901 460.591 569.334 453.237ZM525.281 603.122C513.742 599.004 503.569 591.204 496.048 580.708C488.527 570.213 483.996 557.493 483.028 544.157C482.059 530.821 484.697 517.467 490.607 505.784C496.517 494.102 505.434 484.615 516.232 478.522C527.029 472.429 539.221 470.005 551.267 471.556C563.314 473.106 574.672 478.562 583.908 487.233C593.144 495.904 599.842 507.401 603.155 520.271C606.469 533.141 606.248 546.805 602.523 559.537C597.51 576.607 586.556 590.78 572.071 598.941C557.585 607.101 540.754 608.579 525.281 603.05V603.122Z" fill="#0C6565"/>
<path d="M522.203 656.054L498.566 647.602C493.123 645.656 487.281 648.946 485.516 654.95L462.226 734.211C460.462 740.215 463.444 746.661 468.887 748.607L492.524 757.059C497.967 759.005 503.81 755.716 505.574 749.711L528.864 670.45C530.628 664.446 527.646 658.001 522.203 656.054Z" fill="#0C6565"/>
<path d="M462.965 693.078C462.965 693.078 503.55 659.493 518.191 665.57C530.263 670.607 526.444 698.041 496.043 716.226C489.874 719.871 484.486 724.935 480.244 731.076C476.003 737.217 473.007 744.292 471.459 751.821C468.913 764.461 462.965 778.989 449.509 788.457C421.435 808.385 406.048 784.244 413.006 752.136C419.964 720.028 422.994 710.56 462.965 693.078Z" fill="#F4A28C"/>
<path d="M444.658 878.606L463.974 785.575L400.188 751.821L345.598 878.606H444.658Z" fill="#E6F4F1"/>
<path opacity="0.1" d="M444.658 878.606L463.974 785.575L433.53 769.449L405.104 878.606H444.658Z" fill="black"/>
<path opacity="0.43" d="M804.046 529.851H761.331V543.362H804.046V529.851Z" fill="#C1C1C1"/>
<path opacity="0.36" d="M732.862 557.479C741.857 557.479 749.149 549.435 749.149 539.512C749.149 529.589 741.857 521.545 732.862 521.545C723.867 521.545 716.575 529.589 716.575 539.512C716.575 549.435 723.867 557.479 732.862 557.479Z" fill="#C1C1C1"/>
<path d="M817.479 694.966H728.34V723.684H817.479V694.966Z" fill="#E6F4F1"/>
<path d="M816.052 579.175H728.34V591.112H816.052V579.175Z" fill="#C1C1C1"/>
<path opacity="0.44" d="M865.418 610.411H728.34V622.348H865.418V610.411Z" fill="#C1C1C1"/>
<path opacity="0.44" d="M865.418 636.562H728.34V648.5H865.418V636.562Z" fill="#C1C1C1"/>
<path opacity="0.44" d="M835.939 663.73H728.34V675.668H835.939V663.73Z" fill="#C1C1C1"/>
<path d="M711.417 495.2C715.502 495.2 718.814 491.547 718.814 487.04C718.814 482.534 715.502 478.88 711.417 478.88C707.331 478.88 704.019 482.534 704.019 487.04C704.019 491.547 707.331 495.2 711.417 495.2Z" fill="#FFD200"/>
<path d="M732.269 495.2C736.354 495.2 739.666 491.547 739.666 487.04C739.666 482.534 736.354 478.88 732.269 478.88C728.184 478.88 724.872 482.534 724.872 487.04C724.872 491.547 728.184 495.2 732.269 495.2Z" fill="#E6F4F1"/>
<path d="M752.244 495.2C756.329 495.2 759.641 491.547 759.641 487.04C759.641 482.534 756.329 478.88 752.244 478.88C748.158 478.88 744.847 482.534 744.847 487.04C744.847 491.547 748.158 495.2 752.244 495.2Z" fill="white"/>
<path d="M544.86 595.471C534.675 595.49 524.714 592.175 516.237 585.947C507.76 579.718 501.149 570.855 497.241 560.48C493.332 550.105 492.302 538.683 494.279 527.662C496.257 516.64 501.155 506.514 508.352 498.564C515.549 490.614 524.723 485.198 534.712 483.002C544.7 480.806 555.055 481.928 564.465 486.227C573.875 490.525 581.918 497.807 587.575 507.15C593.232 516.493 596.249 527.477 596.245 538.713C596.228 553.748 590.81 568.162 581.179 578.8C571.549 589.438 558.489 595.432 544.86 595.471V595.471ZM544.86 497.234C537.423 497.234 530.154 499.667 523.97 504.225C517.787 508.783 512.968 515.261 510.122 522.84C507.276 530.419 506.531 538.759 507.982 546.805C509.433 554.851 513.014 562.242 518.273 568.043C523.531 573.844 530.231 577.794 537.525 579.395C544.818 580.995 552.378 580.174 559.249 577.034C566.12 573.895 571.992 568.578 576.124 561.757C580.255 554.936 582.46 546.917 582.46 538.713C582.455 527.714 578.491 517.168 571.441 509.39C564.391 501.613 554.83 497.241 544.86 497.234V497.234Z" fill="#C9C9C9"/>
<path d="M544.86 595.471C532.281 595.478 520.137 590.395 510.728 581.184L519.925 569.755C526.796 576.488 535.67 580.202 544.86 580.192V595.471Z" fill="#24285B"/>
<path d="M596.245 538.713H582.395C582.383 527.716 578.418 517.173 571.369 509.397C564.32 501.621 554.763 497.247 544.794 497.234V481.931C558.438 481.95 571.518 487.94 581.164 498.585C590.81 509.23 596.233 523.662 596.245 538.713V538.713Z" fill="#E6F4F1"/>
<path d="M544.86 595.471V580.192C554.827 580.172 564.381 575.796 571.428 568.022C578.476 560.247 582.443 549.708 582.46 538.713H596.245C596.227 553.748 590.81 568.162 581.179 578.8C571.548 589.438 558.489 595.432 544.86 595.471Z" fill="#FFEE51"/>
<path opacity="0.08" d="M580.199 717.437H558.996V755.38H580.199V717.437Z" fill="black"/>
<path opacity="0.08" d="M615.956 676.685H594.752V755.405H615.956V676.685Z" fill="black"/>
<path opacity="0.08" d="M653.666 649.274H632.463V755.405H653.666V649.274Z" fill="black"/>
<g opacity="0.08">
<path opacity="0.08" d="M546.331 409.289L548.526 418.636C549.009 420.694 549.47 422.607 549.777 424.495C550.172 422.631 550.721 420.67 551.269 418.684L553.991 409.289H556.735L559.325 418.49C559.94 420.694 560.423 422.631 560.796 424.495C561.114 422.484 561.539 420.495 562.069 418.539L564.439 409.289H567.447L562.069 427.692H559.303L556.735 418.902C556.164 416.868 555.681 415.028 555.264 412.873C554.857 414.926 554.351 416.955 553.75 418.95L551.05 427.692H548.306L543.28 409.289H546.331Z" fill="black"/>
<path opacity="0.08" d="M572.1 409.289L574.295 418.636C574.778 420.694 575.217 422.607 575.524 424.495H575.634C576.007 422.631 576.556 420.67 577.105 418.684L579.826 409.289H582.373L584.963 418.49C585.577 420.694 586.06 422.631 586.455 424.495C586.784 422.486 587.209 420.498 587.728 418.539L590.121 409.289H593.106L587.728 427.692H584.985L582.438 418.902C581.846 416.922 581.347 414.91 580.946 412.873V412.873C580.548 414.929 580.043 416.959 579.431 418.95L576.753 427.692H573.988L568.961 409.289H572.1Z" fill="black"/>
<path opacity="0.08" d="M597.891 409.289L600.086 418.636C600.569 420.694 601.03 422.607 601.337 424.495C601.732 422.631 602.281 420.67 602.83 418.684L605.552 409.289H608.098L610.688 418.49C611.303 420.694 611.786 422.631 612.159 424.495H612.268C612.587 422.484 613.012 420.495 613.542 418.539L616 409.289H619.007L613.629 427.692H610.864L608.317 418.902C607.747 416.868 607.264 415.028 606.847 412.873C606.439 414.926 605.933 416.955 605.332 418.95L602.632 427.692H599.889L594.84 409.289H597.891Z" fill="black"/>
<path opacity="0.08" d="M619.973 425.706C619.943 425.389 619.974 425.069 620.064 424.766C620.153 424.463 620.299 424.184 620.493 423.947C620.686 423.711 620.923 423.521 621.187 423.392C621.451 423.262 621.736 423.195 622.025 423.195C622.314 423.195 622.6 423.262 622.864 423.392C623.128 423.521 623.364 423.711 623.558 423.947C623.751 424.184 623.897 424.463 623.987 424.766C624.076 425.069 624.107 425.389 624.078 425.706C624.107 426.023 624.076 426.343 623.987 426.646C623.897 426.949 623.751 427.228 623.558 427.465C623.364 427.701 623.128 427.891 622.864 428.02C622.6 428.15 622.314 428.217 622.025 428.217C621.736 428.217 621.451 428.15 621.187 428.02C620.923 427.891 620.686 427.701 620.493 427.465C620.299 427.228 620.153 426.949 620.064 426.646C619.974 426.343 619.943 426.023 619.973 425.706V425.706Z" fill="black"/>
</g>
<path d="M549.58 284.508H366.469C360.946 284.508 356.469 288.985 356.469 294.508V521.948C356.469 527.471 360.946 531.948 366.469 531.948H549.58C555.103 531.948 559.58 527.471 559.58 521.948V294.508C559.58 288.985 555.103 284.508 549.58 284.508Z" fill="#E6E6E6"/>
<path d="M515.643 393.704C515.707 394.263 515.73 394.826 515.701 395.388C514.578 417.217 508.873 435.197 496.732 451.638C495.096 453.859 493.553 454.462 491.779 453.576C490.855 452.991 490.23 452.138 490.027 451.186C489.824 450.235 490.058 449.255 490.683 448.441C492.458 445.796 494.464 443.305 496.053 440.519C506.947 421.761 511.252 402.091 507.502 381.368C506.383 375.241 504.135 369.295 500.836 363.739C500.278 362.872 499.937 361.92 499.833 360.94C499.689 360.224 499.872 359.488 500.346 358.878C500.819 358.267 501.55 357.826 502.395 357.641C504.339 357.217 505.481 358.257 506.191 359.579C509.901 365.631 512.447 372.13 513.736 378.839C514.747 384.522 515.245 390.206 515.643 393.704Z" fill="#B3B3B3"/>
<path d="M461.211 320.848C461.299 321.361 461.351 321.891 461.267 322.405C461.241 322.564 461.2 322.721 461.143 322.875C460.995 323.28 460.746 323.653 460.413 323.972C460.079 324.291 459.669 324.547 459.208 324.725C458.747 324.902 458.247 324.997 457.739 325.003C436.291 325.607 420.798 334.633 409.009 348.846C404.084 354.912 400.374 361.602 398.023 368.657C397.159 371.096 395.786 372.111 393.903 371.751C393.391 371.598 392.921 371.362 392.521 371.056C392.121 370.749 391.798 370.38 391.572 369.968C391.347 369.556 391.222 369.111 391.206 368.659C391.191 368.207 391.284 367.756 391.48 367.334C399.335 345.508 413.716 328.251 440.858 320.522C446.043 319.046 451.767 318.84 457.276 318.275C459.496 317.994 460.908 319.085 461.211 320.848Z" fill="#B3B3B3"/>
<path d="M528.488 386.902C528.488 388.34 528.488 389.649 528.488 390.946C528.488 393.167 527.053 394.695 525.124 394.708C523.195 394.721 521.837 393.193 521.822 390.933C521.805 383.623 520.59 376.349 518.211 369.312C512.857 353.904 503.275 341.065 486.872 332.193C485.622 331.525 484.28 330.973 483.03 330.319C482.114 329.886 481.414 329.196 481.055 328.372C480.696 327.548 480.701 326.645 481.07 325.825C481.919 323.732 483.74 323.116 486.147 324.194C493.414 327.488 499.914 331.836 505.342 337.034C517.548 348.653 524.322 362.327 527.192 377.439C527.778 380.623 528.071 383.833 528.488 386.902Z" fill="#B3B3B3"/>
<path d="M479.465 410.346C479.465 411.335 479.465 412.324 479.465 413.312C479.465 415.444 478.138 416.92 476.286 416.997C474.435 417.074 472.938 415.559 472.799 413.338C472.629 410.436 472.568 407.522 472.274 404.633C471.937 398.753 470.408 392.962 467.753 387.505C466.845 385.746 465.634 384.107 464.158 382.639C463.444 381.876 462.542 381.249 461.513 380.799C460.483 380.35 459.35 380.089 458.19 380.035C457.029 379.98 455.868 380.133 454.784 380.482C453.701 380.832 452.719 381.37 451.906 382.061C450.466 383.143 449.311 384.461 448.514 385.933C447.717 387.405 447.296 388.998 447.277 390.612C447.306 391.035 447.317 391.459 447.31 391.883C447.301 392.396 447.24 392.913 447.058 393.393C446.616 394.558 445.742 395.455 444.037 395.466C443.601 395.475 443.167 395.409 442.763 395.273C442.359 395.137 441.993 394.933 441.688 394.674C441.382 394.415 441.144 394.107 440.988 393.768C440.832 393.429 440.762 393.067 440.781 392.705C440.618 390.855 440.742 388.995 441.151 387.171C442.694 380.752 446.428 375.616 454.529 373.6C456.721 373.045 459.052 372.99 461.279 373.442C463.505 373.894 465.544 374.835 467.182 376.168C471.503 379.365 473.787 383.602 475.438 388.083C477.99 395.317 479.345 402.807 479.465 410.346Z" fill="#B3B3B3"/>
<path d="M501.731 408.844C498.645 429.169 489.572 448.21 470.006 463.065C467.599 464.888 466.118 465.068 464.652 463.784C463.838 462.97 463.439 461.923 463.54 460.868C463.641 459.812 464.234 458.831 465.192 458.134C468.046 455.785 471.025 453.525 473.617 450.983C485.421 439.427 491.794 425.754 494.587 410.86C494.818 409.576 494.942 408.408 495.142 407.188C495.513 404.954 496.855 403.644 498.66 403.721C500.466 403.798 501.916 405.416 501.731 408.844Z" fill="#B3B3B3"/>
<path d="M400.878 391.395C401.433 374.255 407.05 359.027 420.937 346.381C423.253 344.375 425.728 342.501 428.344 340.77C430.489 339.268 431.877 339.268 433.22 340.462C433.928 341.146 434.337 342.01 434.379 342.912C434.421 343.815 434.094 344.703 433.451 345.431C433.162 345.712 432.836 345.966 432.479 346.188C418.237 355.317 410.985 367.733 408.562 382.215C407.988 387.13 407.807 392.071 408.022 397.006C408.022 399.677 407.034 401.333 404.936 401.462C402.837 401.59 401.51 400.088 401.325 397.353C401.125 395.26 401.001 393.154 400.878 391.395Z" fill="#B3B3B3"/>
<path d="M459.293 338.953C458.628 338.888 457.959 338.871 457.293 338.92C455.422 339.06 453.778 339.168 452.122 339.332C448.897 339.666 447.308 338.882 446.891 336.648C446.475 334.414 447.987 332.886 450.996 332.501C458.789 331.514 466.756 332.199 474.142 334.491C481.044 336.597 487.311 339.932 492.504 344.262C493.272 344.916 493.791 345.737 494.009 346.622C494.146 347.177 494.111 347.768 493.906 348.301C493.579 349.149 492.955 349.904 492.103 350.464C490.837 351.272 489.48 350.464 488.384 349.616C482.215 344.544 474.392 341.089 465.886 339.678C463.648 339.271 461.352 339.156 459.293 338.953Z" fill="#B3B3B3"/>
<path d="M423.931 420.335C423.975 429.077 422.547 437.782 419.687 446.194C418.839 448.608 417.419 449.648 415.521 449.185C413.623 448.723 412.435 446.72 413.222 444.563C416.007 436.841 417.345 428.808 417.188 420.746C417.049 416.073 416.215 411.399 415.645 406.726C415.487 405.876 415.436 405.016 415.49 404.158C415.706 402.694 416.555 401.513 418.576 401.436C419.37 401.407 420.146 401.633 420.744 402.069C421.342 402.504 421.715 403.114 421.786 403.773C422.465 406.944 423.051 410.128 423.452 413.325C423.792 415.944 423.792 418.615 423.931 420.335Z" fill="#B3B3B3"/>
<path d="M465.13 425.869C464.171 438.022 461.446 450.033 457.014 461.64C456.18 463.835 454.853 464.657 452.955 464.272C451.057 463.887 449.869 461.832 450.548 459.842C451.582 456.684 452.786 453.564 453.742 450.392C456.275 442.065 457.861 433.558 458.479 424.983C458.479 424.868 458.479 424.739 458.479 424.611C458.696 422.39 460.115 420.9 461.967 420.939C463.818 420.977 465.238 422.608 465.176 424.945C465.176 425.253 465.145 425.561 465.13 425.869Z" fill="#B3B3B3"/>
<path d="M491.136 403.606C491.107 403.606 491.084 403.629 491.084 403.657C491.084 405.554 491.084 407.475 491.084 409.358C491.084 411.258 489.665 412.542 487.89 412.58C487.405 412.551 486.932 412.442 486.498 412.261C486.064 412.079 485.678 411.827 485.361 411.521C485.044 411.214 484.803 410.858 484.652 410.474C484.501 410.089 484.442 409.684 484.48 409.281C484.48 407.303 484.804 405.3 484.48 403.362C483.631 397.614 482.56 391.889 481.557 386.154C481.448 385.533 481.239 384.927 481.18 384.298C481.177 384.262 481.174 384.225 481.172 384.189C481.113 383.213 481.666 382.309 482.42 381.686C482.791 381.379 483.197 381.112 483.593 380.948C484.087 380.745 484.645 380.801 485.147 380.983C485.501 381.111 485.831 381.281 486.129 381.489C486.416 381.689 486.666 381.922 486.874 382.179C487.186 382.564 487.347 383.044 487.49 383.519C488.645 387.344 489.618 391.214 490.359 395.106C490.896 397.887 490.93 400.73 491.187 403.549C491.19 403.58 491.166 403.606 491.136 403.606V403.606Z" fill="#B3B3B3"/>
<path d="M451.274 424.803C451.011 428.026 450.687 431.968 450.332 435.922C450.281 436.415 450.167 436.901 449.993 437.373C449.855 437.989 449.451 438.542 448.857 438.928C448.263 439.313 447.52 439.505 446.768 439.466C446.007 439.442 445.284 439.185 444.737 438.744C444.19 438.303 443.858 437.71 443.805 437.078C443.628 436.159 443.628 435.223 443.805 434.305C444.796 426.739 444.713 419.103 443.558 411.553C443.452 410.885 443.494 410.206 443.682 409.55C443.79 408.936 444.162 408.374 444.73 407.971C445.297 407.567 446.021 407.348 446.768 407.355C447.536 407.352 448.277 407.587 448.848 408.014C449.419 408.441 449.777 409.03 449.854 409.666C450.283 411.671 450.582 413.694 450.749 415.726C450.981 418.512 451.073 421.298 451.274 424.803Z" fill="#B3B3B3"/>
<path d="M411.114 419.724C411.183 419.704 411.249 419.762 411.238 419.833C410.445 424.789 409.711 429.746 408.87 434.703C408.834 435.382 408.572 436.04 408.114 436.603C407.717 437.025 407.221 437.37 406.662 437.62C405.898 437.961 405.013 438.023 404.237 437.71C404.149 437.675 404.064 437.637 403.98 437.596C403.802 437.508 403.633 437.407 403.477 437.295C403.012 436.96 402.688 436.462 402.508 435.917C402.252 435.14 402.215 434.32 402.405 433.521C404.036 426.915 404.555 420.153 403.948 413.428C403.871 412.813 403.871 412.194 403.948 411.579C404.21 410.115 405.09 409.011 407.034 408.895C407.452 408.878 407.87 408.932 408.263 409.053C408.655 409.174 409.014 409.36 409.317 409.601C409.62 409.841 409.861 410.13 410.026 410.45C410.191 410.77 410.275 411.115 410.275 411.463C410.64 414.172 410.765 416.917 410.99 419.639C410.995 419.7 411.055 419.741 411.114 419.724V419.724Z" fill="#B3B3B3"/>
<path d="M464.889 410.149C464.764 410.166 464.676 410.277 464.684 410.402C464.744 411.252 464.738 412.104 464.667 412.953C464.42 414.327 463.633 415.521 461.782 415.61C461.371 415.667 460.95 415.651 460.547 415.562C460.144 415.473 459.768 415.314 459.444 415.096C459.121 414.878 458.856 414.604 458.669 414.295C458.481 413.985 458.375 413.646 458.356 413.299C457.97 410.924 457.97 408.497 457.616 406.109C457.026 402.222 456.303 398.356 455.62 394.482C455.52 393.915 455.378 393.352 455.321 392.779C455.319 392.759 455.317 392.738 455.316 392.718C455.155 391.883 455.369 391.028 455.919 390.317C456.469 389.607 457.315 389.09 458.294 388.866C459.961 388.686 461.566 389.816 461.936 391.781C463.063 397.799 464.055 403.843 465.089 409.875C465.111 410.006 465.021 410.13 464.889 410.149V410.149Z" fill="#B3B3B3"/>
<path d="M478.555 425.933C477.612 432.855 475.638 439.652 472.676 446.168C472.394 446.636 471.977 447.037 471.463 447.338C471.39 447.38 471.315 447.421 471.239 447.459C470.303 447.927 469.16 447.854 468.268 447.308C468.179 447.254 468.093 447.197 468.009 447.137C467.781 446.974 467.575 446.792 467.393 446.595C466.974 446.138 466.738 445.538 466.678 444.921C466.603 444.147 466.721 443.365 467.028 442.625C468.548 436.946 470.203 431.243 471.8 425.614C471.849 425.442 471.861 425.273 471.885 425.096V425.096C471.912 424.906 472.002 424.72 472.059 424.537C472.602 422.781 473.979 421.755 475.592 421.902C477.29 422.056 478.601 423.597 478.555 425.933Z" fill="#B3B3B3"/>
<path d="M437.347 437.879C437.531 437.94 437.631 438.138 437.57 438.323C435.679 444.092 433.83 449.861 431.847 455.605C431.789 455.902 431.656 456.184 431.457 456.435C431.258 456.686 430.998 456.899 430.694 457.06C430.389 457.221 430.047 457.327 429.69 457.371C429.588 457.383 429.484 457.39 429.381 457.393C428.872 457.403 428.376 457.232 427.932 456.981C427.389 456.674 426.918 456.289 426.54 455.845C426.082 455.307 425.82 454.619 425.81 453.913C425.801 453.299 425.921 452.685 426.168 452.1C427.542 447.183 428.992 442.278 430.412 437.373C430.535 436.95 430.412 436.385 430.797 436.089C431.739 435.345 432.834 434.176 433.884 434.189C434.933 434.202 435.998 435.383 436.862 436.205C437.171 436.496 437.093 437.081 437.12 437.592C437.127 437.726 437.22 437.836 437.347 437.879V437.879Z" fill="#B3B3B3"/>
<path d="M447.857 445.825C448.184 446.808 447.961 447.868 447.67 448.863C447.248 450.304 446.756 451.966 446.182 453.615C445.494 455.591 444.829 457.351 444.043 459.17C443.817 459.696 443.667 460.266 443.335 460.732C443.108 461.053 442.797 461.332 442.421 461.546C441.766 461.919 440.963 462.067 440.179 461.961C439.364 461.831 438.634 461.458 438.125 460.912C437.817 460.581 437.603 460.2 437.494 459.797C437.353 459.277 437.37 458.723 437.42 458.186C437.451 457.839 437.523 457.495 437.633 457.159C438.919 453.418 440.231 449.682 441.568 445.95C442.093 444.499 443.019 443.382 445.148 443.485C446.364 443.581 447.398 444.444 447.857 445.825Z" fill="#B3B3B3"/>
<path d="M543.039 474.263C543.039 479.785 538.562 484.263 533.039 484.263H519.006C518.013 484.263 517.208 483.458 517.208 482.465V482.465C517.208 481.472 518.013 480.668 519.006 480.668H529.754C534.696 480.668 538.703 476.661 538.703 471.719V464.937C538.703 463.74 539.674 462.769 540.871 462.769V462.769C542.068 462.769 543.039 463.74 543.039 464.937V474.263Z" fill="#21AF8D"/>
<path d="M374.044 474.263C374.044 479.785 378.521 484.263 384.044 484.263H398.077C399.07 484.263 399.875 483.458 399.875 482.465V482.465C399.875 481.472 399.07 480.668 398.077 480.668H387.314C382.371 480.668 378.365 476.661 378.365 471.719V464.93C378.365 463.737 377.397 462.769 376.204 462.769V462.769C375.011 462.769 374.044 463.737 374.044 464.93V474.263Z" fill="#21AF8D"/>
<path d="M543.039 305.254C543.039 299.731 538.562 295.254 533.039 295.254H519.006C518.013 295.254 517.208 296.059 517.208 297.052V297.052C517.208 298.045 518.013 298.849 519.006 298.849H529.754C534.696 298.849 538.703 302.856 538.703 307.798V314.579C538.703 315.777 539.674 316.747 540.871 316.747V316.747C542.068 316.747 543.039 315.777 543.039 314.579V305.254Z" fill="#21AF8D"/>
<path d="M374.044 305.254C374.044 299.731 378.521 295.254 384.044 295.254H398.077C399.07 295.254 399.875 296.059 399.875 297.052V297.052C399.875 298.045 399.07 298.849 398.077 298.849H387.314C382.371 298.849 378.365 302.856 378.365 307.798V314.587C378.365 315.78 377.397 316.747 376.204 316.747V316.747C375.011 316.747 374.044 315.78 374.044 314.587V305.254Z" fill="#21AF8D"/>
<path opacity="0.46" d="M540.24 497.859H376.843C375.297 497.859 374.044 499.113 374.044 500.658C374.044 502.204 375.297 503.457 376.843 503.457H540.24C541.786 503.457 543.039 502.204 543.039 500.658C543.039 499.113 541.786 497.859 540.24 497.859Z" fill="white"/>
<path opacity="0.46" d="M519.933 512.15H376.843C375.297 512.15 374.044 513.403 374.044 514.949C374.044 516.495 375.297 517.748 376.843 517.748H519.933C521.479 517.748 522.732 516.495 522.732 514.949C522.732 513.403 521.479 512.15 519.933 512.15Z" fill="white"/>
<path d="M503.675 458.057C516.867 458.057 527.562 449.159 527.562 438.182C527.562 427.205 516.867 418.307 503.675 418.307C490.483 418.307 479.789 427.205 479.789 438.182C479.789 449.159 490.483 458.057 503.675 458.057Z" fill="#0C6565"/>
<path d="M505.274 445.485C501.499 448.162 496.252 447.136 493.764 443.233L490.848 438.661C489.715 436.883 490.432 434.513 492.361 433.662V433.662C493.917 432.975 495.74 433.528 496.653 434.961L497.508 436.303C499.134 438.855 502.566 439.527 505.035 437.777L514.161 431.307C515.425 430.411 517.15 430.545 518.26 431.628V431.628C519.696 433.027 519.512 435.387 517.876 436.547L505.274 445.485Z" fill="#E6F4F1"/>
<ellipse cx="442.5" cy="1256.5" rx="185.5" ry="172.5" fill="#7AFFDF" fill-opacity="0.56"/>
<path d="M812.123 446.701C808.686 448.316 804.859 449.103 801 448.989C790.772 448.989 782 442.093 782 431.073C782 419.231 790.947 409 804.807 409C815.684 409 823 416.009 823 425.611C823 434.231 817.737 439.29 811.877 439.29C809.368 439.29 807.053 437.679 807.246 434.231H806.982C806.18 435.742 804.933 437.017 803.383 437.911C801.833 438.805 800.041 439.283 798.211 439.29C794.579 439.29 791.439 436.583 791.439 432.04C791.434 430.249 791.815 428.476 792.559 426.821C793.304 425.166 794.397 423.663 795.776 422.398C797.156 421.132 798.794 420.13 800.597 419.448C802.399 418.767 804.331 418.419 806.281 418.425C808.576 418.393 810.854 418.804 812.965 419.634L810.877 430.106C809.947 434.473 810.684 436.551 812.754 436.551C815.947 436.551 819.509 432.7 819.509 426.03C819.509 417.7 814.07 411.723 804.368 411.723C794.175 411.723 785.596 419.134 785.596 430.799C785.596 440.466 792.421 446.315 801.684 446.315C804.965 446.384 808.211 445.691 811.123 444.301L812.123 446.701ZM808.614 421.873C807.601 421.596 806.548 421.46 805.491 421.47C799.982 421.47 795.544 426.304 795.544 431.814C795.544 434.344 796.912 436.18 799.667 436.18C803.298 436.18 806.684 431.927 807.298 428.366L808.614 421.873Z" fill="#21AF8D"/>
<ellipse cx="1104.5" cy="1255.5" rx="185.5" ry="172.5" fill="#7AFFDF" fill-opacity="0.56"/>
</svg>
